<svg height="512pt" viewBox="0 0 512.00056 512" width="512pt" xmlns="http://www.w3.org/2000/svg"><path d="m503.46875 256c.011719 24.699219-3.671875 49.265625-10.925781 72.875-4.914063 16.195312-11.550781 31.8125-19.796875 46.59375-43.507813 78.992188-126.5625 128.039062-216.746094 128-4.351562 0-8.703125-.085938-13.054688-.34375-78.285156-4.175781-149.96875-45.164062-193.28125-110.507812-18.894531-28.355469-31.628906-60.363282-37.375-93.949219-2.078124-11.265625-3.246093-22.679688-3.5-34.132813-.167968-2.816406-.253906-5.632812-.253906-8.535156-.046875-35.332031 7.519532-70.257812 22.183594-102.398438 5.289062-11.902343 11.597656-23.324218 18.859375-34.132812.339844-.589844.710937-1.160156 1.109375-1.707031 12.433594-18.394531 27.269531-35.039063 44.117188-49.496094 41.457031-35.796875 93.691406-56.703125 148.394531-59.390625 4.269531-.257812 8.535156-.339844 12.800781-.339844 130.023438.015625 237.847656 100.679688 246.785156 230.398438.511719 5.632812.683594 11.347656.683594 17.066406zm0 0" fill="#d84315"/><path d="m477.867188 256c.035156 23.097656-3.210938 46.082031-9.644532 68.265625-.339844 1.539063-.851562 3.074219-1.277344 4.609375-4.914062 16.195312-11.554687 31.8125-19.796874 46.59375-41.335938 75.074219-118.609376 123.378906-204.203126 127.65625-78.285156-4.175781-149.96875-45.164062-193.28125-110.507812-18.894531-28.355469-31.628906-60.363282-37.375-93.949219-2.078124-11.265625-3.246093-22.679688-3.5-34.132813-.167968-2.816406-.253906-5.632812-.253906-8.535156-.046875-35.332031 7.519532-70.257812 22.183594-102.398438 5.289062-11.902343 11.597656-23.324218 18.859375-34.132812.339844-.589844.710937-1.160156 1.109375-1.707031 12.433594-18.394531 27.269531-35.039063 44.117188-49.496094 41.457031-35.796875 93.691406-56.703125 148.394531-59.390625 71.046875 3.609375 137.078125 37.699219 181.164062 93.527344 31.140625 39.042968 49.574219 86.691406 52.820313 136.53125.511718 5.632812.683594 11.347656.683594 17.066406zm0 0" fill="#f57c00"/><path d="m443.734375 238.933594c.011719 20.441406-3.035156 40.769531-9.039063 60.308594-4.070312 13.402343-9.5625 26.332031-16.386718 38.558593-29.761719 54-82.269532 91.710938-142.945313 102.671875-60.675781 10.960938-123.058593-6-169.832031-46.171875-36.007812-30.878906-60.152344-73.324219-68.289062-120.058593-1.71875-9.320313-2.6875-18.765626-2.894532-28.242188-.144531-2.335938-.214844-4.664062-.214844-7.066406-.035156-29.238282 6.226563-58.144532 18.363282-84.746094 4.375-9.847656 9.597656-19.296875 15.605468-28.242188.28125-.488281.589844-.960937.917969-1.414062 10.289063-15.222656 22.570313-28.996094 36.511719-40.960938 42.265625-36.3125 97.511719-53.824218 152.980469-48.496093 55.46875 5.332031 106.363281 33.042969 140.941406 76.742187 25.773437 32.316406 41.027344 71.75 43.714844 112.992188.425781 4.660156.566406 9.394531.566406 14.125zm0 0" fill="#ff9801"/><g fill="#ffdc00"><path d="m502.785156 238.933594h-76.117187c-18.851563 0-34.132813-15.28125-34.132813-34.132813 0-18.851562 15.28125-34.132812 34.132813-34.132812h-68.265625c-18.851563 0-34.136719-15.28125-34.136719-34.132813 0-18.851562 15.285156-34.132812 34.136719-34.132812h91.5625c31.140625 39.042968 49.574218 86.691406 52.820312 136.53125zm0 0"/><path d="m298.667969 418.132812c-.023438 14.128907-11.472657 25.578126-25.601563 25.601563h-178.261718c-17.371094-14.835937-32.566407-32.042969-45.140626-51.117187.507813-.070313 1.023438-.097657 1.535157-.082032h221.867187c6.792969-.011718 13.308594 2.683594 18.113282 7.488282 4.800781 4.800781 7.496093 11.316406 7.488281 18.109374zm0 0"/><path d="m238.933594 93.867188c-.019532 14.128906-11.46875 25.578124-25.601563 25.601562h-85.332031c9.414062.027344 17.039062 7.652344 17.066406 17.066406-.066406 9.394532-7.667968 16.996094-17.066406 17.066406h-97.28125c5.289062-11.902343 11.597656-23.324218 18.859375-34.132812.339844-.589844.710937-1.160156 1.109375-1.707031 12.433594-18.394531 27.269531-35.039063 44.117188-49.496094h118.527343c6.792969-.007813 13.3125 2.6875 18.113281 7.488281 4.804688 4.804688 7.496094 11.320313 7.488282 18.113282zm0 0"/><path d="m119.46875 281.601562c-.070312 9.394532-7.671875 16.996094-17.066406 17.066407h-90.113282c-2.078124-11.265625-3.246093-22.679688-3.5-34.132813h93.613282c9.414062.027344 17.039062 7.652344 17.066406 17.066406zm0 0"/><path d="m492.542969 328.875c-4.914063 16.195312-11.550781 31.8125-19.796875 46.59375h-80.210938c-14.140625 0-25.601562-11.464844-25.601562-25.601562 0-14.136719 11.460937-25.601563 25.601562-25.601563h-59.734375c-9.414062-.027344-17.039062-7.652344-17.066406-17.066406.066406-9.394531 7.667969-16.996094 17.066406-17.066407h68.265625c9.414063.027344 17.039063 7.652344 17.066406 17.066407-.066406 9.398437-7.667968 17-17.066406 17.066406h76.800782c5.25-.003906 10.371093 1.605469 14.675781 4.609375zm0 0"/></g><path d="m502.785156 238.933594h-25.601562c-3.246094-49.839844-21.679688-97.488282-52.820313-136.53125h25.601563c31.140625 39.042968 49.574218 86.691406 52.820312 136.53125zm0 0" fill="#ff9801"/><path d="m477.183594 238.933594h-33.449219c0-4.691406-.171875-9.472656-.597656-14.164063-1.277344-19.085937-5.210938-37.898437-11.691407-55.894531-7.488281-20.644531-18.296874-39.925781-32-57.085938-2.558593-3.246093-5.203124-6.316406-7.933593-9.386718h32.851562c31.140625 39.042968 49.574219 86.691406 52.820313 136.53125zm0 0" fill="#fec108"/><path d="m238.933594 443.734375h-144.128906c-17.371094-14.835937-32.566407-32.042969-45.140626-51.117187.507813-.070313 1.023438-.097657 1.535157-.082032h52.3125l2.046875 1.789063c37.078125 31.960937 84.425781 49.5 133.375 49.410156zm0 0" fill="#fec108"/><path d="m125.695312 68.265625c-22.351562 14.898437-41.59375 34-56.660156 56.234375-.34375.464844-.65625.949219-.9375 1.453125-5.878906 8.773437-11.019531 18.019531-15.359375 27.648437h-22.019531c5.289062-11.902343 11.597656-23.324218 18.859375-34.132812.339844-.589844.710937-1.160156 1.109375-1.707031 12.433594-18.394531 27.269531-35.039063 44.117188-49.496094zm0 0" fill="#fec108"/><path d="m43.007812 298.667969h-30.71875c-2.078124-11.265625-3.246093-22.679688-3.5-34.132813h26.964844c.429688 3.328125.855469 6.484375 1.453125 9.726563 1.398438 8.253906 3.335938 16.40625 5.800781 24.40625zm0 0" fill="#fec108"/><path d="m492.542969 328.875c-4.914063 16.195312-11.550781 31.8125-19.796875 46.59375h-25.597656c8.242187-14.78125 14.882812-30.398438 19.796874-46.59375.425782-1.535156.9375-3.070312 1.277344-4.609375h9.644532c5.25-.003906 10.371093 1.605469 14.675781 4.609375zm0 0" fill="#ff9801"/><path d="m468.222656 324.265625c-.339844 1.539063-.851562 3.074219-1.277344 4.609375-4.914062 16.195312-11.554687 31.8125-19.796874 46.59375h-54.613282c-.316406.011719-.632812-.015625-.941406-.085938 10.265625-11.488281 19.226562-24.082031 26.710938-37.546874 2.472656-4.4375 4.777343-8.960938 6.828124-13.570313zm0 0" fill="#fec108"/><path d="m162.132812 204.800781c0 9.425781-7.640624 17.066407-17.066406 17.066407-9.425781 0-17.066406-7.640626-17.066406-17.066407s7.640625-17.066406 17.066406-17.066406c9.425782 0 17.066406 7.640625 17.066406 17.066406zm0 0" fill="#283593"/><path d="m281.601562 204.800781c0 9.425781-7.640624 17.066407-17.066406 17.066407-9.425781 0-17.066406-7.640626-17.066406-17.066407s7.640625-17.066406 17.066406-17.066406c9.425782 0 17.066406 7.640625 17.066406 17.066406zm0 0" fill="#283593"/><path d="m256 512c-61.1875.007812-120.351562-21.914062-166.757812-61.796875-45.015626-38.613281-75.195313-91.683594-85.367188-150.109375-2.148438-11.679688-3.359375-23.507812-3.617188-35.375-.164062-2.648438-.257812-5.640625-.257812-8.71875-.0742188-36.554688 7.757812-72.695312 22.957031-105.941406 5.484375-12.316406 12.019531-24.140625 19.53125-35.335938.390625-.679687.824219-1.332031 1.292969-1.960937 45.675781-67.664063 120.886719-109.484375 202.46875-112.578125 81.578125-3.09375 159.742188 32.910156 210.414062 96.921875 32.226563 40.394531 51.296876 89.695312 54.636719 141.261719.472657 5.136718.699219 10.804687.699219 17.632812.011719 25.550781-3.796875 50.960938-11.300781 75.382812-5.09375 16.765626-11.96875 32.9375-20.5 48.242188-45.050781 81.660156-130.9375 132.367188-224.199219 132.375zm0-494.933594c-79.484375.09375-153.75 39.605469-198.242188 105.472656-.28125.378907-.542968.769532-.78125 1.175782-7.09375 10.566406-13.269531 21.71875-18.460937 33.339844-14.199219 31.050781-21.515625 64.804687-21.449219 98.945312 0 2.722656.074219 5.363281.242188 8.003906.234375 11.109375 1.363281 22.183594 3.375 33.109375 9.472656 54.539063 37.640625 104.082031 79.660156 140.117188 54.566406 46.878906 127.351562 66.675781 198.144531 53.894531s132.058594-56.785156 166.789063-119.785156c7.949218-14.253906 14.355468-29.320313 19.097656-44.9375 7.011719-22.8125 10.570312-46.539063 10.558594-70.402344 0-6.296875-.207032-11.46875-.648438-16.289062-8.527344-125.324219-112.667968-222.632813-238.285156-222.644532zm0 0"/><path d="m502.785156 247.46875h-76.117187c-16.164063.003906-30.941407-9.125-38.167969-23.585938-7.226562-14.457031-5.65625-31.757812 4.050781-44.683593h-34.148437c-23.566406 0-42.667969-19.101563-42.667969-42.664063 0-23.566406 19.101563-42.667968 42.667969-42.667968h91.566406c4.710938 0 8.53125 3.820312 8.53125 8.535156 0 4.710937-3.820312 8.53125-8.53125 8.53125h-91.566406c-14.140625 0-25.601563 11.460937-25.601563 25.601562 0 14.136719 11.460938 25.597656 25.601563 25.597656h68.265625c4.710937 0 8.53125 3.820313 8.53125 8.535157 0 4.710937-3.820313 8.53125-8.53125 8.53125-14.140625 0-25.601563 11.460937-25.601563 25.601562 0 14.136719 11.460938 25.601563 25.601563 25.601563h76.117187c4.710938 0 8.53125 3.820312 8.53125 8.53125 0 4.714844-3.820312 8.535156-8.53125 8.535156zm0 0"/><path d="m273.066406 452.265625h-178.261718c-2.027344.003906-3.988282-.71875-5.53125-2.035156-17.984376-15.351563-33.714844-33.164063-46.726563-52.90625-1.59375-2.414063-1.859375-5.472657-.699219-8.121094 1.15625-2.652344 3.578125-4.535156 6.433594-5.003906.964844-.144531 1.941406-.210938 2.917969-.199219h221.867187c18.851563 0 34.132813 15.28125 34.132813 34.132812 0 18.851563-15.28125 34.132813-34.132813 34.132813zm-175.082031-17.066406h175.082031c9.425782 0 17.066406-7.640625 17.066406-17.066407 0-9.425781-7.640624-17.066406-17.066406-17.066406h-206.941406c9.453125 12.414063 20.125 23.847656 31.859375 34.132813zm0 0"/><path d="m472.746094 384h-80.210938c-18.851562 0-34.132812-15.28125-34.132812-34.132812 0-18.851563 15.28125-34.132813 34.132812-34.132813 4.710938 0 8.53125 3.820313 8.53125 8.53125 0 4.714844-3.820312 8.535156-8.53125 8.535156-9.425781 0-17.066406 7.640625-17.066406 17.066407 0 9.425781 7.640625 17.066406 17.066406 17.066406h80.210938c4.714844 0 8.535156 3.820312 8.535156 8.535156 0 4.710938-3.820312 8.53125-8.535156 8.53125zm0 0"/><path d="m492.535156 337.410156c-1.738281-.003906-3.433594-.535156-4.859375-1.527344-2.878906-2.007812-6.300781-3.082031-9.808593-3.082031h-76.800782c-4.710937 0-8.53125-3.820312-8.53125-8.535156 0-4.710937 3.820313-8.53125 8.53125-8.53125h76.800782c6.988281-.007813 13.808593 2.132813 19.542968 6.132813 3.0625 2.128906 4.386719 6 3.269532 9.5625-1.113282 3.558593-4.414063 5.980468-8.144532 5.980468zm0 0"/><path d="m128 162.132812h-97.28125c-4.710938 0-8.53125-3.820312-8.53125-8.53125 0-4.714843 3.820312-8.535156 8.53125-8.535156h97.28125c2.226562.019532 4.367188-.867187 5.925781-2.457031 1.667969-1.578125 2.613281-3.777344 2.609375-6.074219-.003906-4.710937-3.824218-8.53125-8.535156-8.535156-4.710938 0-8.53125-3.820312-8.53125-8.53125 0-4.714844 3.820312-8.535156 8.53125-8.535156h85.332031c9.425781 0 17.070313-7.640625 17.070313-17.066406 0-9.425782-7.644532-17.066407-17.070313-17.066407h-118.527343c-4.710938 0-8.53125-3.820312-8.53125-8.535156 0-4.710937 3.820312-8.53125 8.53125-8.53125h118.527343c18.851563 0 34.136719 15.28125 34.136719 34.132813 0 18.851562-15.285156 34.132812-34.136719 34.132812h-61.191406c.96875 2.742188 1.460937 5.628906 1.460937 8.535156-.070312 14.109375-11.492187 25.527344-25.601562 25.597656zm0 0"/><path d="m102.402344 307.199219h-90.113282c-4.714843 0-8.535156-3.820313-8.535156-8.53125 0-4.714844 3.820313-8.535157 8.535156-8.535157h90.113282c2.226562.019532 4.363281-.867187 5.921875-2.457031 1.671875-1.578125 2.617187-3.777343 2.609375-6.074219-.003906-4.710937-3.820313-8.53125-8.53125-8.535156h-93.613282c-4.710937 0-8.53125-3.820312-8.53125-8.53125 0-4.714844 3.820313-8.535156 8.53125-8.535156h93.613282c14.128906.015625 25.582031 11.46875 25.597656 25.601562-.070312 14.109376-11.488281 25.527344-25.597656 25.597657zm0 0"/><path d="m145.066406 230.402344c-14.136718 0-25.597656-11.464844-25.597656-25.601563 0-14.140625 11.460938-25.601562 25.597656-25.601562 14.140625 0 25.601563 11.460937 25.601563 25.601562-.015625 14.132813-11.46875 25.585938-25.601563 25.601563zm0-34.136719c-4.710937 0-8.53125 3.820313-8.53125 8.535156 0 4.710938 3.820313 8.53125 8.53125 8.53125 4.714844 0 8.535156-3.820312 8.535156-8.53125-.003906-4.710937-3.824218-8.53125-8.535156-8.535156zm0 0"/><path d="m264.535156 230.402344c-14.140625 0-25.601562-11.464844-25.601562-25.601563 0-14.140625 11.460937-25.601562 25.601562-25.601562 14.136719 0 25.597656 11.460937 25.597656 25.601562-.015624 14.132813-11.46875 25.585938-25.597656 25.601563zm0-34.136719c-4.714844 0-8.535156 3.820313-8.535156 8.535156 0 4.710938 3.820312 8.53125 8.535156 8.53125 4.710938 0 8.53125-3.820312 8.53125-8.53125-.003906-4.710937-3.820312-8.53125-8.53125-8.535156zm0 0"/><path d="m162.132812 230.402344h-34.132812c-4.710938 0-8.53125-3.824219-8.53125-8.535156 0-4.714844 3.820312-8.535157 8.53125-8.535157h34.132812c4.714844 0 8.535157 3.820313 8.535157 8.535157 0 4.710937-3.820313 8.535156-8.535157 8.535156zm0 0"/><path d="m281.601562 230.402344h-34.132812c-4.714844 0-8.535156-3.824219-8.535156-8.535156 0-4.714844 3.820312-8.535157 8.535156-8.535157h34.132812c4.710938 0 8.53125 3.820313 8.53125 8.535157 0 4.710937-3.820312 8.535156-8.53125 8.535156zm0 0"/><path d="m204.800781 290.132812c-33.75 0-42.667969-22.328124-42.667969-34.132812 0-4.710938 3.820313-8.53125 8.535157-8.53125 4.710937 0 8.53125 3.820312 8.53125 8.53125.085937 2.75 1.707031 17.066406 25.601562 17.066406 25.308594 0 25.601563-16.371094 25.601563-17.066406 0-4.710938 3.820312-8.53125 8.53125-8.53125 4.714844 0 8.535156 3.820312 8.535156 8.53125 0 11.804688-8.917969 34.132812-42.667969 34.132812zm0 0"/><path d="m401.066406 332.800781h-68.265625c-14.132812-.015625-25.585937-11.46875-25.601562-25.601562.070312-14.109375 11.492187-25.527344 25.601562-25.597657h68.265625c14.132813.015626 25.585938 11.46875 25.601563 25.597657-.070313 14.109375-11.492188 25.53125-25.601563 25.601562zm-68.265625-34.132812c-2.226562-.023438-4.363281.863281-5.917969 2.453125-1.675781 1.578125-2.621093 3.777344-2.617187 6.078125.003906 4.710937 3.824219 8.53125 8.535156 8.535156h68.265625c2.226563.019531 4.367188-.867187 5.925782-2.460937 1.671874-1.578126 2.613281-3.773438 2.609374-6.074219-.003906-4.710938-3.824218-8.527344-8.535156-8.53125zm0 0"/></svg>